<svg width="1366" height="589" xmlns="http://www.w3.org/2000/svg"><g><path d="M-73,-93L-80,192L-26,29Z" fill="#e73127" stroke="#e73127"/><path d="M-73,-93L-26,29L74,-121Z" fill="#eb0a0d" stroke="#eb0a0d"/><path d="M74,-121L-26,29L115,125Z" fill="#ef352a" stroke="#ef352a"/><path d="M74,-121L115,125L217,-55Z" fill="#f5372b" stroke="#f5372b"/><path d="M74,-121L217,-55L489,-51Z" fill="#fd542f" stroke="#fd542f"/><path d="M74,-121L489,-51L771,-83Z" fill="#ff714e" stroke="#ff714e"/><path d="M74,-121L771,-83L992,-106Z" fill="#f57c5c" stroke="#f57c5c"/><path d="M74,-121L992,-106L1128,-106Z" fill="#e37457" stroke="#e37457"/><path d="M217,-55L115,125L249,44Z" fill="#f96f45" stroke="#f96f45"/><path d="M217,-55L249,44L344,21Z" fill="#fe6a43" stroke="#fe6a43"/><path d="M217,-55L344,21L369,-17Z" fill="#fe6243" stroke="#fe6243"/><path d="M217,-55L369,-17L489,-51Z" fill="#ff6443" stroke="#ff6443"/><path d="M369,-17L344,21L563,85Z" fill="#ff9566" stroke="#ff9566"/><path d="M369,-17L563,85L489,-51Z" fill="#ff8a67" stroke="#ff8a67"/><path d="M489,-51L563,85L621,-42Z" fill="#fe8f70" stroke="#fe8f70"/><path d="M489,-51L621,-42L771,-83Z" fill="#f37b5c" stroke="#f37b5c"/><path d="M621,-42L563,85L618,127Z" fill="#f7b782" stroke="#f7b782"/><path d="M621,-42L618,127L826,101Z" fill="#e9b67f" stroke="#e9b67f"/><path d="M621,-42L826,101L771,-83Z" fill="#e27f65" stroke="#e27f65"/><path d="M771,-83L826,101L992,-106Z" fill="#cb685b" stroke="#cb685b"/><path d="M992,-106L826,101L1012,123Z" fill="#b88876" stroke="#b88876"/><path d="M992,-106L1012,123L1119,58Z" fill="#a16e75" stroke="#a16e75"/><path d="M992,-106L1119,58L1128,-106Z" fill="#98445d" stroke="#98445d"/><path d="M1128,-106L1119,58L1241,42Z" fill="#854671" stroke="#854671"/><path d="M1128,-106L1241,42L1316,-70Z" fill="#802b65" stroke="#802b65"/><path d="M1128,-106L1316,-70L1366,-79Z" fill="#802564" stroke="#802564"/><path d="M1128,-106L1366,-79L1624,-58Z" fill="#801469" stroke="#801469"/><path d="M1316,-70L1241,42L1429,132Z" fill="#804684" stroke="#804684"/><path d="M1316,-70L1429,132L1366,-79Z" fill="#802278" stroke="#802278"/><path d="M1366,-79L1429,132L1521,107Z" fill="#80418f" stroke="#80418f"/><path d="M1366,-79L1521,107L1624,-58Z" fill="#800a7c" stroke="#800a7c"/><path d="M1624,-58L1521,107L1542,236Z" fill="#8057a2" stroke="#8057a2"/><path d="M1624,-58L1542,236L1557,321Z" fill="#8072c2" stroke="#8072c2"/><path d="M1624,-58L1557,321L1634,494Z" fill="#7c80e1" stroke="#7c80e1"/><path d="M-26,29L-80,192L49,201Z" fill="#ea7450" stroke="#ea7450"/><path d="M-26,29L49,201L115,125Z" fill="#ee814e" stroke="#ee814e"/><path d="M115,125L49,201L284,181Z" fill="#f6a773" stroke="#f6a773"/><path d="M115,125L284,181L249,44Z" fill="#faae63" stroke="#faae63"/><path d="M249,44L284,181L344,21Z" fill="#fea862" stroke="#fea862"/><path d="M344,21L284,181L427,193Z" fill="#ffcd7e" stroke="#ffcd7e"/><path d="M344,21L427,193L563,85Z" fill="#ffcb82" stroke="#ffcb82"/><path d="M563,85L427,193L547,188Z" fill="#ffeaa5" stroke="#ffeaa5"/><path d="M563,85L547,188L618,127Z" fill="#fbe89f" stroke="#fbe89f"/><path d="M618,127L547,188L718,211Z" fill="#f3eeb1" stroke="#f3eeb1"/><path d="M618,127L718,211L826,101Z" fill="#e4e29e" stroke="#e4e29e"/><path d="M826,101L718,211L769,277Z" fill="#dde9b4" stroke="#dde9b4"/><path d="M826,101L769,277L957,228Z" fill="#cee2b6" stroke="#cee2b6"/><path d="M826,101L957,228L1012,123Z" fill="#bbcaa0" stroke="#bbcaa0"/><path d="M1012,123L957,228L1123,184Z" fill="#a4c0b1" stroke="#a4c0b1"/><path d="M1012,123L1123,184L1119,58Z" fill="#97ac98" stroke="#97ac98"/><path d="M1119,58L1123,184L1241,42Z" fill="#858d91" stroke="#858d91"/><path d="M1241,42L1123,184L1295,224Z" fill="#809bab" stroke="#809bab"/><path d="M1241,42L1295,224L1429,132Z" fill="#8087a7" stroke="#8087a7"/><path d="M1429,132L1295,224L1425,209Z" fill="#8088c4" stroke="#8088c4"/><path d="M1429,132L1425,209L1521,107Z" fill="#8074b4" stroke="#8074b4"/><path d="M1521,107L1425,209L1542,236Z" fill="#8075c7" stroke="#8075c7"/><path d="M-80,192L-40,662L-26,505Z" fill="#8e5675" stroke="#8e5675"/><path d="M-80,192L-26,505L-23,366Z" fill="#ce806b" stroke="#ce806b"/><path d="M-80,192L-23,366L49,201Z" fill="#e6877b" stroke="#e6877b"/><path d="M49,201L-23,366L16,426Z" fill="#d89075" stroke="#d89075"/><path d="M49,201L16,426L215,433Z" fill="#d8a67c" stroke="#d8a67c"/><path d="M49,201L215,433L284,181Z" fill="#f0be92" stroke="#f0be92"/><path d="M284,181L215,433L367,331Z" fill="#edd99a" stroke="#edd99a"/><path d="M284,181L367,331L427,193Z" fill="#ffe4b1" stroke="#ffe4b1"/><path d="M427,193L367,331L547,188Z" fill="#fef1c1" stroke="#fef1c1"/><path d="M547,188L367,331L549,422Z" fill="#eef7bd" stroke="#eef7bd"/><path d="M547,188L549,422L647,432Z" fill="#e2fdc1" stroke="#e2fdc1"/><path d="M547,188L647,432L718,211Z" fill="#e8fac8" stroke="#e8fac8"/><path d="M718,211L647,432L769,277Z" fill="#d6f5c0" stroke="#d6f5c0"/><path d="M769,277L647,432L831,432Z" fill="#b5e7bb" stroke="#b5e7bb"/><path d="M769,277L831,432L957,228Z" fill="#bde9bb" stroke="#bde9bb"/><path d="M957,228L831,432L964,424Z" fill="#a0dbb9" stroke="#a0dbb9"/><path d="M957,228L964,424L1146,395Z" fill="#8dcdbd" stroke="#8dcdbd"/><path d="M957,228L1146,395L1123,184Z" fill="#92c4ca" stroke="#92c4ca"/><path d="M1123,184L1146,395L1295,224Z" fill="#79b2cf" stroke="#79b2cf"/><path d="M1295,224L1146,395L1331,405Z" fill="#69a6c7" stroke="#69a6c7"/><path d="M1295,224L1331,405L1381,395Z" fill="#6999cb" stroke="#6999cb"/><path d="M1295,224L1381,395L1425,209Z" fill="#7794d5" stroke="#7794d5"/><path d="M1425,209L1381,395L1557,321Z" fill="#7086d4" stroke="#7086d4"/><path d="M1425,209L1557,321L1542,236Z" fill="#7b80dd" stroke="#7b80dd"/><path d="M-23,366L-26,505L16,426Z" fill="#9d6877" stroke="#9d6877"/><path d="M16,426L-26,505L90,504Z" fill="#835f82" stroke="#835f82"/><path d="M16,426L90,504L215,433Z" fill="#987f89" stroke="#987f89"/><path d="M215,433L90,504L277,497Z" fill="#8e8d97" stroke="#8e8d97"/><path d="M215,433L277,497L367,331Z" fill="#b9bd9d" stroke="#b9bd9d"/><path d="M367,331L277,497L346,538Z" fill="#a3b4a8" stroke="#a3b4a8"/><path d="M367,331L346,538L549,422Z" fill="#b3ccb5" stroke="#b3ccb5"/><path d="M549,422L346,538L521,529Z" fill="#88b8c5" stroke="#88b8c5"/><path d="M549,422L521,529L647,432Z" fill="#9cd1cc" stroke="#9cd1cc"/><path d="M647,432L521,529L672,534Z" fill="#7dbece" stroke="#7dbece"/><path d="M647,432L672,534L831,432Z" fill="#83c5c6" stroke="#83c5c6"/><path d="M831,432L672,534L875,538Z" fill="#60b2c6" stroke="#60b2c6"/><path d="M831,432L875,538L964,424Z" fill="#63b4c4" stroke="#63b4c4"/><path d="M964,424L875,538L976,504Z" fill="#48a2c8" stroke="#48a2c8"/><path d="M964,424L976,504L1149,488Z" fill="#3e9aca" stroke="#3e9aca"/><path d="M964,424L1149,488L1146,395Z" fill="#48a0c8" stroke="#48a0c8"/><path d="M1146,395L1149,488L1331,405Z" fill="#358ecc" stroke="#358ecc"/><path d="M1331,405L1149,488L1307,528Z" fill="#1873d4" stroke="#1873d4"/><path d="M1331,405L1307,528L1381,395Z" fill="#2c73d3" stroke="#2c73d3"/><path d="M1381,395L1307,528L1438,545Z" fill="#0e5ada" stroke="#0e5ada"/><path d="M1381,395L1438,545L1557,321Z" fill="#3b69d5" stroke="#3b69d5"/><path d="M1557,321L1438,545L1634,494Z" fill="#2556dc" stroke="#2556dc"/><path d="M-26,505L-40,662L101,661Z" fill="#6d248e" stroke="#6d248e"/><path d="M-26,505L101,661L90,504Z" fill="#70468e" stroke="#70468e"/><path d="M90,504L101,661L226,679Z" fill="#75449f" stroke="#75449f"/><path d="M90,504L226,679L277,497Z" fill="#796ba0" stroke="#796ba0"/><path d="M277,497L226,679L346,538Z" fill="#7f7dac" stroke="#7f7dac"/><path d="M346,538L226,679L367,626Z" fill="#7f6fb7" stroke="#7f6fb7"/><path d="M346,538L367,626L521,529Z" fill="#7f93c2" stroke="#7f93c2"/><path d="M521,529L367,626L496,718Z" fill="#7f81d1" stroke="#7f81d1"/><path d="M521,529L496,718L624,725Z" fill="#8080df" stroke="#8080df"/><path d="M521,529L624,725L672,534Z" fill="#7796da" stroke="#7796da"/><path d="M672,534L624,725L776,663Z" fill="#6a7ed8" stroke="#6a7ed8"/><path d="M672,534L776,663L875,538Z" fill="#5d93cf" stroke="#5d93cf"/><path d="M875,538L776,663L1005,636Z" fill="#4676d3" stroke="#4676d3"/><path d="M875,538L1005,636L976,504Z" fill="#3782d0" stroke="#3782d0"/><path d="M976,504L1005,636L1149,488Z" fill="#217ad2" stroke="#217ad2"/><path d="M1149,488L1005,636L1184,618Z" fill="#115ed9" stroke="#115ed9"/><path d="M1149,488L1184,618L1307,528Z" fill="#005dd9" stroke="#005dd9"/><path d="M1307,528L1184,618L1271,632Z" fill="#0042e0" stroke="#0042e0"/><path d="M1307,528L1271,632L1438,545Z" fill="#003ee1" stroke="#003ee1"/><path d="M1438,545L1271,632L1485,655Z" fill="#0023e8" stroke="#0023e8"/><path d="M1438,545L1485,655L1634,494Z" fill="#0027e8" stroke="#0027e8"/><path d="M1634,494L1485,655L1544,710Z" fill="#0010ef" stroke="#0010ef"/><path d="M-40,662L496,718L226,679Z" fill="#7c4baa" stroke="#7c4baa"/><path d="M-40,662L226,679L101,661Z" fill="#72279a" stroke="#72279a"/><path d="M226,679L496,718L367,626Z" fill="#7f65c0" stroke="#7f65c0"/><path d="M624,725L1544,710L1005,636Z" fill="#1e48db" stroke="#1e48db"/><path d="M624,725L1005,636L776,663Z" fill="#5970d3" stroke="#5970d3"/><path d="M1005,636L1544,710L1271,632Z" fill="#0024e4" stroke="#0024e4"/><path d="M1005,636L1271,632L1184,618Z" fill="#0844df" stroke="#0844df"/><path d="M1271,632L1544,710L1485,655Z" fill="#000aea" stroke="#000aea"/></g></svg>